# xmcd CD database file
#
# Track frame offsets:
#	150
#	25536
#	38632
#	56923
#	71711
#	82849
#	100954
#	112537
#	143576
#
# Disc length: 2149 seconds
#
# Revision: 0
# Processed by: cddbd v1.4PL0 Copyright (c) Steve Scherf et al.
# Submitted via: CDex 1.50beta10
#
DISCID=65086309
DTITLE=Gnomusy - The Edge
DYEAR=1900
DGENRE=New Age
TTITLE0=Dolmen Ridge
TTITLE1=Hordath
TTITLE2=Niru
TTITLE3=Luk
TTITLE4=Dance of the Mist
TTITLE5=The Dormants
TTITLE6=Caprice
TTITLE7=Shadows in the Wood
TTITLE8=Data Track
EXTD=
EXTT0=
EXTT1=
EXTT2=
EXTT3=
EXTT4=
EXTT5=
EXTT6=
EXTT7=
EXTT8=
PLAYORDER=
